<?xml version="1.0" encoding="iso-8859-1"?>
<!-- Generator: Adobe Illustrator 23.0.1, SVG Export Plug-In . SVG Version: 6.00 Build 0)  -->
<svg version="1.1" id="Layer_1" xmlns="http://www.w3.org/2000/svg" xmlns:xlink="http://www.w3.org/1999/xlink" x="0px" y="0px"
	 viewBox="0 0 70 70" style="enable-background:new 0 0 70 70;" xml:space="preserve">
<style type="text/css">
	.st0{fill:#F7BC66;}
	.st1{fill:#141942;}
</style>
<circle class="st0" cx="35" cy="35" r="35"/>
<path class="st1" d="M35,2.92C17.28,2.92,2.92,17.28,2.92,35c0,17.72,14.36,32.08,32.08,32.08c17.72,0,32.08-14.36,32.08-32.08
	C67.08,17.28,52.72,2.92,35,2.92z M35,65.98C17.89,65.98,4.02,52.11,4.02,35S17.89,4.02,35,4.02S65.98,17.89,65.98,35
	S52.11,65.98,35,65.98z"/>
<g>
	<g>
		<path class="st1" d="M36.02,29.32H21.89l2.25,4.57h6.68c-0.21,0.84-0.53,1.61-0.97,2.3c-0.43,0.69-0.94,1.3-1.53,1.81
			c-0.59,0.52-1.25,0.91-2,1.19c-0.75,0.28-1.55,0.42-2.39,0.42c-1.05,0-2.04-0.22-2.95-0.65c-0.91-0.43-1.71-1.02-2.39-1.76
			c-0.68-0.74-1.22-1.6-1.62-2.6c-0.4-1-0.6-2.06-0.6-3.18c0-1.12,0.2-2.18,0.6-3.18c0.4-1,0.94-1.86,1.62-2.6
			c0.68-0.74,1.48-1.32,2.39-1.76c0.91-0.43,1.9-0.65,2.95-0.65c1.43,0,2.72,0.38,3.88,1.14c0.18,0.12,0.35,0.24,0.52,0.37
			l3.83-2.82c-0.62-0.54-1.3-1.02-2.03-1.45c-1.86-1.09-3.93-1.63-6.2-1.63c-1.73,0-3.37,0.33-4.9,0.98
			c-1.53,0.66-2.87,1.55-4.01,2.69c-1.14,1.14-2.03,2.47-2.69,4.01c-0.66,1.53-0.98,3.17-0.98,4.9c0,1.73,0.33,3.37,0.98,4.9
			c0.66,1.53,1.55,2.87,2.69,4.01c1.14,1.14,2.47,2.03,4.01,2.69c1.53,0.66,3.17,0.98,4.9,0.98c1.73,0,3.35-0.33,4.85-0.98
			c1.5-0.66,2.79-1.55,3.88-2.69c1.09-1.14,1.94-2.47,2.57-4.01c0.62-1.53,0.93-3.17,0.93-4.9c0-0.35-0.01-0.7-0.04-1.05
			C36.1,30.03,36.07,29.67,36.02,29.32z"/>
		<path class="st1" d="M56.28,40.8L56.28,40.8l-3.92-4.86c0.23-0.08,0.46-0.18,0.7-0.29c1.48-0.68,2.68-1.71,3.6-3.09
			c0.93-1.38,1.39-2.95,1.39-4.71c0-1.19-0.23-2.33-0.69-3.39c-0.46-1.07-1.08-1.99-1.86-2.78c-0.79-0.78-1.7-1.41-2.74-1.86
			c-1.04-0.46-2.16-0.69-3.36-0.69H38.27v24.6h3.02h1.94h3.86L45,41.16l-1.78,1.78v-3.98v-2.5h6.48l-1.77,1.77l0.7,0.87l-0.01,0
			l3.76,4.64h6.26L56.28,40.8z M49.41,31.54h-6.19v-0.07v-0.04v-7.98h6.19c0.52,0,1,0.11,1.46,0.33c0.46,0.22,0.86,0.52,1.19,0.9
			c0.34,0.38,0.61,0.8,0.81,1.28c0.2,0.48,0.3,0.98,0.3,1.49c0,1.24-0.36,2.23-1.09,2.97C51.35,31.17,50.46,31.54,49.41,31.54z"/>
	</g>
	<g>
		<g>
			<path class="st1" d="M26.16,48.26h-0.98v2.84h-1.02v-2.84h-0.98v-0.77h2.98V48.26z"/>
			<path class="st1" d="M30.41,50.3h-1.27l-0.19,0.8h-1.01l0.97-3.61h1.8l0.96,3.61h-1.07L30.41,50.3z M30.23,49.53l-0.45-1.96
				h-0.01l-0.45,1.96H30.23z"/>
			<path class="st1" d="M36.74,51.1h-1.17l-0.63-1.86h-0.01l-0.63,1.86h-1.17l0.79-1.9l-0.66-1.71h1.1l0.57,1.7h0.01l0.57-1.7h1.1
				l-0.66,1.71L36.74,51.1z"/>
			<path class="st1" d="M41.5,50.33v0.77h-2.84v-3.61h2.79v0.77h-1.77v0.61h1.6v0.77h-1.6v0.68H41.5z"/>
			<path class="st1" d="M43.61,49.8h1.01c0.05,0.35,0.29,0.56,0.64,0.56c0.34,0,0.54-0.13,0.54-0.34c0-0.26-0.33-0.3-0.73-0.35
				c-0.6-0.08-1.35-0.18-1.35-1.05c0-0.78,0.57-1.18,1.52-1.18c0.84,0,1.4,0.48,1.49,1.29h-1.01c-0.03-0.32-0.23-0.5-0.55-0.5
				c-0.27,0-0.42,0.11-0.42,0.29c0,0.22,0.31,0.26,0.69,0.32c0.61,0.08,1.39,0.2,1.39,1.05c0,0.79-0.59,1.25-1.6,1.25
				C44.31,51.15,43.71,50.65,43.61,49.8z"/>
		</g>
	</g>
</g>
</svg>
